<svg xmlns="http://www.w3.org/2000/svg" xmlns:xlink="http://www.w3.org/1999/xlink" viewBox="0 0 419.06 164.61"><defs><style>.cls-1,.cls-2{fill:#fff;}.cls-2,.cls-3,.cls-4,.cls-5,.cls-6{stroke:#fff;stroke-miterlimit:10;stroke-width:0.1px;}.cls-3{fill:none;}.cls-4{fill:url(#linear-gradient);}.cls-5{fill:url(#linear-gradient-2);}.cls-6{fill:url(#linear-gradient-3);}.cls-7{fill:url(#linear-gradient-4);}.cls-8{fill:url(#linear-gradient-5);}.cls-9{fill:#440641;}</style><linearGradient id="linear-gradient" x1="115.81" y1="67.83" x2="113.18" y2="-66.42" gradientUnits="userSpaceOnUse"><stop offset="0.13" stop-color="#0f7087"/><stop offset="0.35" stop-color="#519fb2"/><stop offset="0.65" stop-color="#a6dce9"/><stop offset="0.79" stop-color="#c7f4ff"/></linearGradient><linearGradient id="linear-gradient-2" x1="73.42" y1="61.78" x2="-20.55" y2="135.35" gradientUnits="userSpaceOnUse"><stop offset="0.15" stop-color="#ffc803"/><stop offset="0.23" stop-color="#ffd230"/><stop offset="0.32" stop-color="#ffdb5c"/><stop offset="0.41" stop-color="#ffe280"/><stop offset="0.51" stop-color="#ffe89c"/><stop offset="0.6" stop-color="#ffedb0"/><stop offset="0.7" stop-color="#ffefbc"/><stop offset="0.79" stop-color="#fff0c0"/></linearGradient><linearGradient id="linear-gradient-3" x1="90.46" y1="107.75" x2="208.76" y2="173.11" gradientUnits="userSpaceOnUse"><stop offset="0" stop-color="#d9167e"/><stop offset="0.19" stop-color="#d9167e"/><stop offset="0.23" stop-color="#db1f83"/><stop offset="0.28" stop-color="#e13792"/><stop offset="0.29" stop-color="#e13993"/><stop offset="0.37" stop-color="#e64ea0"/><stop offset="0.48" stop-color="#ee73b6"/><stop offset="0.51" stop-color="#f388c3"/><stop offset="0.56" stop-color="#f89fd1"/><stop offset="0.62" stop-color="#fcb0db"/><stop offset="0.68" stop-color="#febae1"/><stop offset="0.76" stop-color="#ffbde3"/></linearGradient><linearGradient id="linear-gradient-4" x1="154.07" y1="100.81" x2="215.17" y2="170.25" gradientTransform="matrix(0.98, 0.09, -0.09, 0.91, -45.75, -13.77)" gradientUnits="userSpaceOnUse"><stop offset="0"/><stop offset="0.67" stop-color="#d1d1d1" stop-opacity="0"/></linearGradient><linearGradient id="linear-gradient-5" x1="152.13" y1="97.95" x2="181.8" y2="131.67" xlink:href="#linear-gradient-4"/></defs><title>Dicey logo White</title><g id="Layer_2" data-name="Layer 2"><g id="Layer_1-2" data-name="Layer 1"><path class="cls-1" d="M234.16,149.5a8.82,8.82,0,0,0,5.23,1.34,14.56,14.56,0,0,0,3.31-.38,18.19,18.19,0,0,0,3-1,6.57,6.57,0,0,1,1.3,1.87,5.85,5.85,0,0,1,.53,2.54,5.68,5.68,0,0,1-2.59,4.76c-1.73,1.24-4.51,1.87-8.35,1.87q-7.59,0-12-3.41t-4.37-11.28V101.79q.77-.18,2.25-.48a17.24,17.24,0,0,1,3.22-.28,8,8,0,0,1,4.94,1.24q1.59,1.26,1.59,4.42v8H246.4a8.76,8.76,0,0,1,.86,2,9,9,0,0,1,.38,2.69,5,5,0,0,1-1.15,3.65,4.18,4.18,0,0,1-3.07,1.15H232.29v20.92A5.07,5.07,0,0,0,234.16,149.5Z"/><path class="cls-1" d="M266.07,141.92a11.38,11.38,0,0,0,5,7.1,17.13,17.13,0,0,0,9,2.21,22.24,22.24,0,0,0,7.44-1.2,27.16,27.16,0,0,0,5.52-2.55,6.43,6.43,0,0,1,2.2,2.11,5.22,5.22,0,0,1,.87,2.88,5,5,0,0,1-1.3,3.41,10.67,10.67,0,0,1-3.55,2.55,22.65,22.65,0,0,1-5.33,1.63,36.28,36.28,0,0,1-6.62.57A32.89,32.89,0,0,1,269,159.1a21.09,21.09,0,0,1-8-4.66,21.62,21.62,0,0,1-5.19-7.72A28.46,28.46,0,0,1,254,136a27.13,27.13,0,0,1,1.82-10.36,21.34,21.34,0,0,1,4.95-7.39,19.76,19.76,0,0,1,7.24-4.42,26.36,26.36,0,0,1,8.74-1.44,24.34,24.34,0,0,1,8.64,1.49,19.86,19.86,0,0,1,6.72,4.13,18.85,18.85,0,0,1,4.36,6.33,20.11,20.11,0,0,1,1.59,8,5.4,5.4,0,0,1-1.39,4,7,7,0,0,1-3.89,1.73Zm10.66-20.45a10.76,10.76,0,0,0-7.87,3.12q-3.17,3.12-3.55,8.88l21.31-3.17a10.71,10.71,0,0,0-2.79-6.19Q281.43,121.47,276.73,121.47Z"/><path class="cls-1" d="M331,122.05a14.51,14.51,0,0,0-5.33,1,11.9,11.9,0,0,0-4.22,2.78,13.44,13.44,0,0,0-2.83,4.51,16.85,16.85,0,0,0-1.06,6.24q0,7.11,3.75,10.7a13.38,13.38,0,0,0,9.69,3.6,16.6,16.6,0,0,0,5.81-.91,33.16,33.16,0,0,0,4.37-2,8.53,8.53,0,0,1,2.16,2.21,5.16,5.16,0,0,1,.81,2.88q0,3.27-3.84,5.38t-10.37,2.11a32.27,32.27,0,0,1-10-1.49,20.92,20.92,0,0,1-7.82-4.51,20.33,20.33,0,0,1-5-7.54,28.47,28.47,0,0,1-1.77-10.46,27.19,27.19,0,0,1,1.92-10.61,21.35,21.35,0,0,1,5.23-7.58,21.57,21.57,0,0,1,7.72-4.51,29.36,29.36,0,0,1,9.41-1.49q6.44,0,10.27,2.26t3.84,5.52a5,5,0,0,1-.81,2.78,7.78,7.78,0,0,1-1.88,2,34.72,34.72,0,0,0-4.27-2A15.79,15.79,0,0,0,331,122.05Z"/><path class="cls-1" d="M391.42,117.24q-5.25-4.56-14.09-4.56a23.15,23.15,0,0,0-6.17.77,29.26,29.26,0,0,0-3.79,1.37V88.26c0-3.77-.61-6.39-1.82-7.88s-3.13-2.23-5.77-2.23a12.51,12.51,0,0,0-3.69.52c-1.14.34-2,.62-2.58.85v71.63A21.88,21.88,0,0,0,354,156a4.72,4.72,0,0,0,1.59,3.47,4.8,4.8,0,0,0,.7.42,7.93,7.93,0,0,0,4.83,1.34,12.78,12.78,0,0,0,3.68-.52c1.14-.34,2-.63,2.59-.86v-35.3a21.3,21.3,0,0,1,3-1.37,13.91,13.91,0,0,1,4.85-.83,9.73,9.73,0,0,1,6.61,2.19q2.54,2.19,2.53,7V155q0,3.21,1.65,4.47a8.5,8.5,0,0,0,5.15,1.26,16.76,16.76,0,0,0,3.26-.29c1-.19,1.76-.36,2.28-.48V131Q396.67,121.82,391.42,117.24Z"/><path class="cls-1" d="M254.05,6.77A6.47,6.47,0,0,1,256,2a6.83,6.83,0,0,1,5-2,6.67,6.67,0,0,1,5,2A6.54,6.54,0,0,1,268,6.77a6.64,6.64,0,0,1-6.91,6.81,6.82,6.82,0,0,1-5-2A6.6,6.6,0,0,1,254.05,6.77Zm1,13.92c.51-.13,1.26-.29,2.26-.48a17,17,0,0,1,3.21-.29q3.47,0,5,1.25t1.59,4.41V65.7c-.52.13-1.27.29-2.26.48a16.27,16.27,0,0,1-3.22.29c-2.3,0-4-.41-5-1.25S255,62.92,255,60.81Z"/><path class="cls-1" d="M303.2,28.65a14.47,14.47,0,0,0-5.33,1,11.79,11.79,0,0,0-4.22,2.79,13.36,13.36,0,0,0-2.84,4.51,17.07,17.07,0,0,0-1.05,6.24q0,7.1,3.74,10.7a13.42,13.42,0,0,0,9.7,3.6,16.54,16.54,0,0,0,5.8-.91,32,32,0,0,0,4.37-2,8.22,8.22,0,0,1,2.16,2.21,5.17,5.17,0,0,1,.82,2.88c0,2.17-1.28,4-3.84,5.37s-6,2.11-10.37,2.11a32.23,32.23,0,0,1-10-1.48,20.85,20.85,0,0,1-7.82-4.51,20.1,20.1,0,0,1-5-7.54,28.3,28.3,0,0,1-1.78-10.46,27.19,27.19,0,0,1,1.92-10.61,20.86,20.86,0,0,1,13-12.09A29.31,29.31,0,0,1,301.76,19q6.42,0,10.27,2.26t3.84,5.51a5,5,0,0,1-.82,2.79,7.55,7.55,0,0,1-1.87,2,35.43,35.43,0,0,0-4.27-2A15.78,15.78,0,0,0,303.2,28.65Z"/><path class="cls-1" d="M334.68,48.52a11.43,11.43,0,0,0,5,7.11,17.15,17.15,0,0,0,9,2.2,22,22,0,0,0,7.44-1.2,27.19,27.19,0,0,0,5.52-2.54,6.37,6.37,0,0,1,2.21,2.11,5.21,5.21,0,0,1,.86,2.88,5.06,5.06,0,0,1-1.29,3.41A10.62,10.62,0,0,1,359.88,65a21.89,21.89,0,0,1-5.33,1.63,35.47,35.47,0,0,1-6.62.58,32.59,32.59,0,0,1-10.32-1.54,21,21,0,0,1-8-4.65,21.64,21.64,0,0,1-5.18-7.73,28.37,28.37,0,0,1-1.87-10.75,26.94,26.94,0,0,1,1.82-10.36,21.22,21.22,0,0,1,4.94-7.4,19.91,19.91,0,0,1,7.25-4.41A26.3,26.3,0,0,1,345.33,19,24.26,24.26,0,0,1,354,20.45a19.81,19.81,0,0,1,6.72,4.12,19,19,0,0,1,4.37,6.34,20.05,20.05,0,0,1,1.58,8,5.37,5.37,0,0,1-1.39,4,7,7,0,0,1-3.89,1.72Zm10.65-20.44a10.79,10.79,0,0,0-7.87,3.12q-3.16,3.12-3.55,8.88l21.31-3.17a10.7,10.7,0,0,0-2.78-6.19Q350,28.08,345.33,28.08Z"/><path class="cls-1" d="M240.66,3.89q-1.57-1.25-5-1.25a20.15,20.15,0,0,0-3.21.24,12.68,12.68,0,0,0-2.26.53V20.78A25,25,0,0,0,226,19.49a22,22,0,0,0-4.9-.53A28.12,28.12,0,0,0,212,20.4a19.7,19.7,0,0,0-7.34,4.41,21,21,0,0,0-4.94,7.54,29.2,29.2,0,0,0-1.83,10.89q0,12.19,6.77,18.1T223,67.24a29,29,0,0,0,9.12-1.3,27.8,27.8,0,0,0,6.34-2.83,10.44,10.44,0,0,0,2.88-2.59,6,6,0,0,0,1-3.55V8.3Q242.25,5.14,240.66,3.89Zm-9.85,41.44-16.7,9.27a2.43,2.43,0,0,1-3.61-2.15l.2-19.23a2.44,2.44,0,0,1,3.69-2.06l16.49,10A2.44,2.44,0,0,1,230.81,45.33Z"/><path class="cls-1" d="M417.24,21.24C416,19.76,414.1,19,411.46,19a12.4,12.4,0,0,0-3.68.52c-1.14.34-2,.63-2.59.85v35a22.17,22.17,0,0,1-3.63,1.74,13.83,13.83,0,0,1-4.85.82,9.72,9.72,0,0,1-6.61-2.18c-1.68-1.46-2.53-3.81-2.53-7V25.29q0-3.21-1.65-4.47a8.5,8.5,0,0,0-5.15-1.27,17.38,17.38,0,0,0-3.25.29c-1,.2-1.77.36-2.29.49v29q0,9.23,5.25,13.79t14.09,4.57a22.74,22.74,0,0,0,6.17-.78,27.05,27.05,0,0,0,4.45-1.65V92q0,5.66,1.82,7.88c1.21,1.48,3.13,2.23,5.77,2.23a12.51,12.51,0,0,0,3.69-.52c1.14-.34,2-.63,2.59-.85V29.12C419.06,25.35,418.45,22.73,417.24,21.24Z"/><path class="cls-2" d="M76.05,36,140.44,74.9A9.36,9.36,0,0,1,145,83.2l39.88-.84a16.43,16.43,0,0,0-2.21-8.31l-38-65.75A16.52,16.52,0,0,0,130.44.05H54.52A16.54,16.54,0,0,0,47,1.87L65.78,36.33A9.41,9.41,0,0,1,76.05,36Z"/><path class="cls-2" d="M60.9,119.1,61.66,44a9.4,9.4,0,0,1,4.12-7.71L47,1.87A16.55,16.55,0,0,0,40.22,8.3l-38,65.75a16.51,16.51,0,0,0,0,16.51l38,65.75a16.49,16.49,0,0,0,5.86,5.93l20-34.6A9.39,9.39,0,0,1,60.9,119.1Z"/><path class="cls-2" d="M145,83.2a9.39,9.39,0,0,1-4.87,8.11L75,127.49a9.35,9.35,0,0,1-8.89.15l-20,34.6a16.51,16.51,0,0,0,8.44,2.32h75.92a16.52,16.52,0,0,0,14.29-8.25l38-65.75a16.46,16.46,0,0,0,2.21-8.2Z"/><path class="cls-2" d="M148.49,86.72l-63.7-42c-6.21-4.1-15-.81-15.7,5.91l-7.4,68.64c-.72,6.65,7,11.68,14,9.09l71.09-26.6C153.69,99.11,154.66,90.79,148.49,86.72Z"/><path class="cls-2" d="M140.44,74.9,76.05,36a9.5,9.5,0,0,0-14.39,8L60.9,119.1A9.5,9.5,0,0,0,75,127.49l65.16-36.18a9.49,9.49,0,0,0,.29-16.41Z"/><path class="cls-3" d="M132.46,2.18H52.92A10.64,10.64,0,0,0,43.71,7.5L3.94,76.39A10.61,10.61,0,0,0,3.94,87L43.71,155.9a10.64,10.64,0,0,0,9.21,5.32h79.54a10.64,10.64,0,0,0,9.21-5.32L181.44,87a10.61,10.61,0,0,0,0-10.62L141.67,7.5A10.64,10.64,0,0,0,132.46,2.18Z"/><path class="cls-2" d="M143.4,82.57l38.53-1M48.78,4.15,66.6,37.34m.71,88.39-19.7,33.65m91.45-84.84L76.82,37a9.17,9.17,0,0,0-13.91,7.76l-.75,72.56a9.17,9.17,0,0,0,13.63,8.11l63-35A9.17,9.17,0,0,0,139.06,74.54Z"/><path class="cls-4" d="M76.49,37.24l62.69,37.85a9.15,9.15,0,0,1,4.45,8.09l38.83-.82a16.1,16.1,0,0,0-2.15-8.09l-37-64a16.08,16.08,0,0,0-13.92-8H55.52A16.09,16.09,0,0,0,48.19,4l18.3,33.55A9.15,9.15,0,0,1,76.49,37.24Z"/><path class="cls-5" d="M61.73,118.13l.75-73.08a9.1,9.1,0,0,1,4-7.5L48.19,4a16.07,16.07,0,0,0-6.59,6.26l-36.95,64a16.07,16.07,0,0,0,0,16.07l37,64a16,16,0,0,0,5.71,5.77L66.8,126.45A9.17,9.17,0,0,1,61.73,118.13Z"/><path class="cls-6" d="M143.63,83.18a9.14,9.14,0,0,1-4.75,7.89L75.45,126.3a9.13,9.13,0,0,1-8.65.15L47.31,160.12a16,16,0,0,0,8.21,2.27h73.91a16.08,16.08,0,0,0,13.92-8l37-64a16.11,16.11,0,0,0,2.15-8Z"/><path class="cls-7" d="M147,86.6,85,45.67c-6.06-4-14.59-.79-15.29,5.75L62.5,118.24c-.7,6.48,6.82,11.38,13.58,8.85L145.3,101.2C152.07,98.67,153,90.57,147,86.6Z"/><path class="cls-2" d="M139.18,75.09,76.49,37.24a9.25,9.25,0,0,0-14,7.81l-.75,73.08a9.25,9.25,0,0,0,13.72,8.17l63.43-35.23a9.24,9.24,0,0,0,.3-16Z"/><path class="cls-8" d="M119,86.71,88.9,66.84c-2.94-1.94-7.09-.38-7.43,2.79L78,102.08c-.34,3.14,3.32,5.52,6.6,4.3l33.6-12.58A3.89,3.89,0,0,0,119,86.71Z"/><path class="cls-9" d="M118.26,79.18,84.89,59a4.93,4.93,0,0,0-7.46,4.16L77,102.09a4.92,4.92,0,0,0,7.3,4.35L118.1,87.69a4.92,4.92,0,0,0,.16-8.51Z"/></g></g></svg>